<?xml version="1.0" encoding="UTF-8"?>
<svg width="300" height="300" viewBox="0 0 300 300" xmlns="http://www.w3.org/2000/svg">
  <defs>
    <linearGradient id="briefcaseGradient" x1="0%" y1="0%" x2="100%" y2="100%">
      <stop offset="0%" style="stop-color:#FF6B00"/>
      <stop offset="100%" style="stop-color:#FF9B00"/>
    </linearGradient>
  </defs>
  
  <!-- Background squares pattern -->
  <g transform="translate(20, 20)" fill="#FF6B00" opacity="0.3">
    <rect x="0" y="0" width="20" height="20"/>
    <rect x="30" y="30" width="20" height="20"/>
    <rect x="60" y="0" width="20" height="20"/>
  </g>

  <!-- Main briefcase shape -->
  <path d="M50 80 L250 80 Q270 80 270 100 L270 250 Q270 270 250 270 L50 270 Q30 270 30 250 L30 100 Q30 80 50 80 Z" 
        fill="url(#briefcaseGradient)"/>
  
  <!-- Handle -->
  <path d="M120 60 L180 60 Q190 60 190 70 L190 80 L110 80 L110 70 Q110 60 120 60 Z" 
        fill="url(#briefcaseGradient)"/>
  
  <!-- Bar chart -->
  <g transform="translate(80, 120)">
    <rect x="0" y="80" width="20" height="40" fill="white"/>
    <rect x="40" y="40" width="20" height="80" fill="white"/>
    <rect x="80" y="60" width="20" height="60" fill="white"/>
    <rect x="120" y="20" width="20" height="100" fill="white"/>
  </g>
</svg> 